<?xml version="1.0" standalone="no"?>
<!DOCTYPE svg PUBLIC "-//W3C//DTD SVG 20010904//EN"
 "http://www.w3.org/TR/2001/REC-SVG-20010904/DTD/svg10.dtd">
<svg version="1.0" xmlns="http://www.w3.org/2000/svg"
 width="900.000000pt" height="900.000000pt" viewBox="0 0 900.000000 900.000000"
 preserveAspectRatio="xMidYMid meet">
<metadata>
Created by potrace 1.14, written by Peter Selinger 2001-2017
</metadata>
<g transform="translate(0.000000,900.000000) scale(0.100000,-0.100000)"
fill="#000000" stroke="none">
<path d="M0 4500 l0 -4500 4500 0 4500 0 0 4500 0 4500 -4500 0 -4500 0 0
-4500z m3064 2118 c3 -13 6 -692 6 -1509 0 -1004 3 -1505 11 -1545 23 -130
148 -329 257 -409 71 -52 178 -106 257 -129 68 -20 96 -21 875 -24 850 -3 852
-3 1001 44 173 55 338 206 416 382 14 31 34 101 44 155 18 92 19 157 19 1137
l0 1040 378 -2 377 -3 0 -1125 c0 -1026 -2 -1136 -18 -1246 -27 -184 -61 -290
-144 -444 -132 -246 -329 -435 -578 -555 -132 -63 -213 -90 -354 -116 -99 -18
-159 -19 -1105 -19 -877 0 -1010 2 -1090 16 -287 51 -501 161 -708 362 -199
194 -317 407 -372 674 -14 69 -16 258 -16 1708 l0 1630 369 0 369 0 6 -22z"/>
</g>
</svg>
