<?xml version="1.0" standalone="no"?>
<!DOCTYPE svg PUBLIC "-//W3C//DTD SVG 20010904//EN"
 "http://www.w3.org/TR/2001/REC-SVG-20010904/DTD/svg10.dtd">
<svg version="1.0" xmlns="http://www.w3.org/2000/svg"
 width="640.000000pt" height="640.000000pt" viewBox="0 0 640.000000 640.000000"
 preserveAspectRatio="xMidYMid meet">
<metadata>
Created by potrace 1.14, written by Peter Selinger 2001-2017
</metadata>
<g transform="translate(0.000000,640.000000) scale(0.100000,-0.100000)"
fill="#000000" stroke="none">
<path d="M0 3200 l0 -3200 3200 0 3200 0 0 3200 0 3200 -3200 0 -3200 0 0
-3200z m1920 1720 c13 -8 16 -164 20 -1267 5 -1125 7 -1264 22 -1311 44 -141
160 -278 294 -345 110 -55 137 -57 941 -57 446 0 764 4 803 10 163 25 332 155
408 312 51 105 52 117 52 1065 0 788 2 883 16 897 13 14 47 16 215 16 119 0
208 -4 220 -10 19 -10 19 -31 19 -913 -1 -840 -2 -909 -20 -1002 -39 -210
-125 -377 -273 -527 -120 -122 -258 -211 -417 -265 -142 -49 -209 -53 -1014
-53 -813 0 -885 4 -1030 56 -157 56 -260 120 -379 233 -137 131 -213 250 -272
426 -50 147 -48 106 -52 1446 -3 1152 -2 1268 12 1283 14 14 46 16 218 16 111
0 209 -5 217 -10z"/>
</g>
</svg>
